HIERARCHY
ROOT root
{
	OFFSET 0.000000 0.000000 0.000000
	CHANNELS 6 Xposition Yposition Zposition Zrotation Yrotation Xrotation
	JOINT lhip
	{
		OFFSET 0.058581 -0.082280 -0.017664
		CHANNELS 3 Zrotation Yrotation Xrotation
		JOINT lknee
		{
			OFFSET 0.043451 -0.386469 0.008037
			CHANNELS 3 Zrotation Yrotation Xrotation
			JOINT lankle
			{
				OFFSET -0.014790 -0.426874 -0.037428
				CHANNELS 3 Zrotation Yrotation Xrotation
				JOINT ltoe
				{
					OFFSET 0.041054 -0.060286 0.122042
					CHANNELS 3 Zrotation Yrotation Xrotation
					End Site
					{
						OFFSET 0.000000 0.000000 0.000000
					}
				}
			}
		}
	}
	JOINT rhip
	{
		OFFSET -0.060310 -0.090513 -0.013543
		CHANNELS 3 Zrotation Yrotation Xrotation
		JOINT rknee
		{
			OFFSET -0.043257 -0.383688 -0.004843
			CHANNELS 3 Zrotation Yrotation Xrotation
			JOINT rankle
			{
				OFFSET 0.019056 -0.420046 -0.034562
				CHANNELS 3 Zrotation Yrotation Xrotation
				JOINT rtoe
				{
					OFFSET -0.034840 -0.062106 0.130323
					CHANNELS 3 Zrotation Yrotation Xrotation
					End Site
					{
						OFFSET 0.000000 0.000000 0.000000
					}
				}
			}
		}
	}
	JOINT lowerback
	{
		OFFSET 0.004439 0.124404 -0.038385
		CHANNELS 3 Zrotation Yrotation Xrotation
		JOINT upperback
		{
			OFFSET 0.004488 0.137956 0.026820
			CHANNELS 3 Zrotation Yrotation Xrotation
			JOINT chest
			{
				OFFSET -0.002265 0.056032 0.002855
				CHANNELS 3 Zrotation Yrotation Xrotation
				JOINT lowerneck
				{
					OFFSET -0.013390 0.211636 -0.033468
					CHANNELS 3 Zrotation Yrotation Xrotation
					JOINT upperneck
					{
						OFFSET 0.010113 0.088937 0.050410
						CHANNELS 3 Zrotation Yrotation Xrotation
						End Site
						{
							OFFSET 0.000000 0.000000 0.000000
						}
					}
				}
				JOINT lclavicle
				{
					OFFSET 0.071702 0.114000 -0.018898
					CHANNELS 3 Zrotation Yrotation Xrotation
					JOINT lshoulder
					{
						OFFSET 0.122921 0.045205 -0.019046
						CHANNELS 3 Zrotation Yrotation Xrotation
						JOINT lelbow
						{
							OFFSET 0.255332 -0.015649 -0.022946
							CHANNELS 3 Zrotation Yrotation Xrotation
							JOINT lwrist
							{
								OFFSET 0.265709 0.012698 -0.007375
								CHANNELS 3 Zrotation Yrotation Xrotation
								End Site
								{
									OFFSET 0.000000 0.000000 0.000000
								}
							}
						}
					}
				}
				JOINT rclavicle
				{
					OFFSET -0.082954 0.112472 -0.023707
					CHANNELS 3 Zrotation Yrotation Xrotation
					JOINT rshoulder
					{
						OFFSET -0.113228 0.046853 -0.008472
						CHANNELS 3 Zrotation Yrotation Xrotation
						JOINT relbow
						{
							OFFSET -0.260127 -0.014369 -0.031269
							CHANNELS 3 Zrotation Yrotation Xrotation
							JOINT rwrist
							{
								OFFSET -0.269108 0.006794 -0.006027
								CHANNELS 3 Zrotation Yrotation Xrotation
								End Site
								{
									OFFSET 0.000000 0.000000 0.000000
								}
							}
						}
					}
				}
			}
		}
	}
}
MOTION
Frames: 10
Frame Time: 0.033333
2.253085 0.679506 1.000836 -86.353155 -0.591353 83.654324 -3.916121 -2.573450 6.610882 -0.424811 -14.354257 1.455236 1.247632 7.751491 -11.208037 0.000000 -0.000000 0.000000 3.165359 -5.118631 5.442086 -3.884185 -3.489609 4.082959 -0.849085 -13.113511 -13.320262 0.000000 -0.000000 0.000000 0.184509 3.617916 7.266133 -2.377651 -2.302030 4.124071 -2.170706 -0.323740 -1.548190 2.200365 -3.404163 1.698562 5.104679 -2.474786 12.464105 -28.884242 -4.628800 2.160683 -50.381169 -7.277240 14.571423 2.406795 -22.005159 6.606525 -3.210132 -3.460533 1.944511 26.753400 8.298123 2.366277 56.164815 2.416416 21.198510 -0.178673 25.388934 12.332915 1.185737 3.664884 2.971916 
2.256460 0.680633 0.998138 -87.006657 -1.024331 84.460548 -4.392997 -2.797242 5.164135 -0.379407 -14.007763 1.904043 0.889026 7.963400 -10.184914 0.000000 -0.000000 0.000000 2.894153 -3.835807 3.704988 -3.989681 -3.842341 5.068249 -1.078046 -13.616027 -13.044828 0.000000 -0.000000 0.000000 -1.039934 3.194898 6.701700 -1.687945 -1.609377 5.210209 -2.020037 0.637377 -2.381864 2.218417 -3.335335 1.265524 4.950860 -2.813002 12.122621 -27.944233 -4.351994 1.465611 -51.692578 -7.813268 15.045521 2.197006 -22.550252 6.212020 -3.873212 -3.701357 2.357376 25.654342 8.369304 2.042230 56.899814 2.994790 21.260347 -0.730014 25.076701 11.837879 2.036052 3.484008 3.122063 
2.258394 0.682186 0.995399 -86.994256 -1.259969 85.015120 -4.670590 -2.966495 4.216026 -0.314953 -14.015603 2.012117 0.723774 8.138224 -9.726611 0.000000 -0.000000 0.000000 2.907358 -3.168831 2.739601 -4.165735 -3.843764 5.287571 -1.041973 -13.963770 -12.627883 0.000000 -0.000000 0.000000 -1.721081 3.203270 6.634994 -1.260238 -1.445152 5.034182 -1.833261 1.091333 -2.382144 2.125398 -3.347140 1.479467 4.913809 -2.662767 11.257473 -27.216078 -3.536249 0.291678 -52.810785 -8.218927 15.541109 1.155800 -22.419554 6.291230 -5.220183 -2.889140 2.898167 25.158917 7.989640 1.465424 57.201632 3.296649 21.346750 -0.910814 24.929202 11.521349 2.966096 3.195834 4.167800 
2.258725 0.682948 0.995060 -86.499920 -1.327209 85.070551 -4.653367 -3.087312 3.923836 -0.520061 -14.167619 2.311232 0.699269 8.001652 -9.720054 0.000000 -0.000000 0.000000 2.882740 -3.232424 2.698865 -4.219048 -4.197027 5.254119 -1.064828 -14.237791 -12.631615 0.000000 -0.000000 0.000000 -1.858140 3.277663 6.764113 -1.160842 -1.330409 4.778544 -1.711206 1.125861 -2.388456 2.187879 -2.445028 1.305619 4.888066 -1.784938 11.365554 -27.478094 -3.611688 0.218867 -52.607720 -8.120013 15.679727 1.238289 -22.136092 6.702814 -4.798683 -3.505579 3.520850 25.415405 8.125314 1.663957 56.878765 3.428642 21.245553 -1.267718 24.564391 11.472460 2.771637 3.470420 4.941908 
2.259522 0.683351 0.994900 -86.486117 -1.462156 85.146575 -4.781066 -3.100728 3.719373 -0.553247 -14.117896 2.428751 0.752404 8.006227 -9.677906 0.000000 -0.000000 0.000000 2.770355 -3.157162 2.453995 -4.233287 -4.176469 5.466448 -1.173378 -14.191283 -12.622979 0.000000 -0.000000 0.000000 -1.850808 3.388943 6.836216 -1.233863 -1.249018 4.727086 -1.690254 1.137740 -2.386395 2.103528 -1.237204 0.976334 4.906120 -0.677644 11.301296 -27.446897 -3.848702 0.205083 -52.616276 -7.985495 15.710691 1.354242 -21.679561 6.694634 -4.942252 -3.534859 3.706236 25.525618 8.381705 1.898739 56.805181 3.670452 21.217370 -1.439791 24.553413 11.135731 2.882531 3.534823 4.950934 
2.259706 0.683710 0.994863 -86.036083 -1.496341 85.085199 -4.811123 -3.141805 3.818926 -0.471299 -14.506456 2.220569 0.934817 8.045674 -9.608149 0.000000 -0.000000 0.000000 2.765389 -3.291256 2.599757 -4.238737 -4.205438 5.327317 -1.050901 -14.364091 -12.745497 0.000000 -0.000000 0.000000 -1.745152 3.470076 7.144534 -1.229101 -1.267461 4.564204 -1.525082 1.130272 -2.532257 2.213279 0.867595 0.558434 5.186126 2.037362 11.494072 -27.664905 -4.223639 0.358590 -52.392382 -7.771618 15.611781 1.349446 -21.103574 6.892240 -4.917067 -3.174609 3.554048 25.320294 8.413771 2.163376 56.985718 3.635788 21.216185 -1.636573 24.950262 10.791921 2.885859 3.629548 4.388025 
2.260269 0.684158 0.994904 -85.947653 -1.540878 85.050405 -4.843345 -3.174201 3.766677 -0.491836 -14.631629 2.275278 0.890918 8.205361 -9.504945 0.000000 -0.000000 0.000000 2.760072 -3.293430 2.586606 -4.283828 -4.338708 5.338676 -1.149355 -14.411002 -12.645879 0.000000 -0.000000 0.000000 -1.538126 3.480066 7.431415 -1.367034 -1.233252 4.445088 -1.417395 1.285165 -2.765750 2.337648 3.583553 0.176796 5.285436 5.196273 11.701929 -27.841653 -4.590532 0.507415 -52.140238 -7.422728 15.506768 1.558941 -20.442143 7.215656 -4.844792 -3.473357 3.509482 25.167410 8.546421 2.681946 57.220543 3.926598 21.092302 -1.667212 25.218759 10.472293 2.881385 3.909749 3.614558 
2.260059 0.684501 0.995135 -85.650859 -1.652865 84.996673 -4.952541 -3.287047 3.839491 -0.518702 -14.781525 2.245110 0.987770 8.209819 -9.390421 0.000000 -0.000000 0.000000 2.625279 -3.490922 2.729266 -4.300075 -4.477063 5.225702 -1.095945 -14.527245 -12.758792 0.000000 -0.000000 0.000000 -1.447872 3.608897 7.556380 -1.486189 -1.149141 4.240263 -1.172111 1.210838 -2.713028 2.627133 6.823286 -0.072498 5.351983 9.002825 12.095576 -28.061526 -4.721113 0.621646 -51.948035 -7.117768 15.273549 1.798126 -20.351224 7.537552 -4.163780 -3.287932 3.331350 25.064306 8.331061 2.997293 57.437609 4.271716 21.044433 -1.511913 25.522345 10.363806 2.740492 3.903008 3.091983 
2.260187 0.684645 0.995597 -85.402068 -1.696688 85.013357 -4.965476 -3.398708 3.799868 -0.573558 -14.987956 2.225069 1.050169 8.285286 -9.420394 0.000000 -0.000000 0.000000 2.574114 -3.484975 2.757391 -4.252021 -4.628903 5.179940 -0.943718 -14.511358 -12.786842 0.000000 -0.000000 0.000000 -1.293917 3.654858 7.643183 -1.619569 -1.129097 4.063795 -0.994942 1.379816 -2.758186 2.720369 10.438354 -0.390944 5.707762 12.459998 12.468039 -27.974145 -5.069186 0.875446 -51.904823 -6.736526 14.729656 1.579896 -20.194502 7.550745 -4.937517 -2.639832 2.603591 25.067954 8.457507 3.727293 57.578788 4.514818 21.023488 -1.760571 26.125132 10.301555 3.300742 3.766619 2.648225 
2.260752 0.684901 0.995786 -85.182896 -1.723188 85.014676 -4.946662 -3.535332 3.653248 -0.656924 -15.012707 2.366717 1.264426 8.360132 -9.405694 0.000000 -0.000000 0.000000 2.533608 -3.633672 2.638191 -4.242845 -4.833003 5.331245 -0.893752 -14.323488 -12.898350 0.000000 -0.000000 0.000000 -0.868954 3.734084 8.060159 -1.918732 -0.959333 3.594694 -0.907878 1.714976 -2.966502 2.912427 14.028900 -0.459688 5.938813 16.587902 13.108113 -27.973004 -5.317121 0.952502 -51.965313 -6.499728 14.419380 1.981138 -20.267369 7.665395 -3.509741 -2.730235 2.281526 24.742008 8.627250 4.465257 58.124630 4.893028 21.213838 -1.672311 26.083532 10.570104 2.660896 4.108727 2.198405 
